<svg id="Grupo_20" data-name="Grupo 20" xmlns="http://www.w3.org/2000/svg" width="19.575" height="19.575" viewBox="0 0 19.575 19.575">
  <path id="Trazado_18" data-name="Trazado 18" d="M14.168,0H5.407A5.417,5.417,0,0,0,0,5.407v8.761a5.417,5.417,0,0,0,5.407,5.407h8.761a5.417,5.417,0,0,0,5.407-5.407V5.407A5.436,5.436,0,0,0,14.168,0Zm3.643,14.168a3.677,3.677,0,0,1-3.672,3.672H5.407a3.715,3.715,0,0,1-3.672-3.672V5.407A3.677,3.677,0,0,1,5.407,1.735h8.761A3.677,3.677,0,0,1,17.84,5.407v8.761Zm0,0" fill="#333"/>
  <path id="Trazado_19" data-name="Trazado 19" d="M21.431,16.4a5.031,5.031,0,1,0,5.031,5.031A5.035,5.035,0,0,0,21.431,16.4Zm0,8.327a3.3,3.3,0,1,1,3.3-3.3,3.295,3.295,0,0,1-3.3,3.3Zm0,0" transform="translate(-11.658 -11.658)" fill="#333"/>
  <path id="Trazado_20" data-name="Trazado 20" d="M48.872,11.3a1.269,1.269,0,0,0-.9.376,1.322,1.322,0,0,0-.376.9,1.269,1.269,0,0,0,.376.9,1.322,1.322,0,0,0,.9.376,1.269,1.269,0,0,0,.9-.376,1.322,1.322,0,0,0,.376-.9,1.269,1.269,0,0,0-.376-.9,1.322,1.322,0,0,0-.9-.376Zm0,0" transform="translate(-33.837 -8.033)" fill="#333"/>
</svg>
