<svg id="Grupo_21" data-name="Grupo 21" xmlns="http://www.w3.org/2000/svg" width="24.11" height="19.575" viewBox="0 0 24.11 19.575">
  <path id="Trazado_21" data-name="Trazado 21" d="M24.11,2.322a9.259,9.259,0,0,1-2.839.774A4.985,4.985,0,0,0,23.446.369a10.234,10.234,0,0,1-3.17,1.18A4.89,4.89,0,0,0,16.663,0a4.94,4.94,0,0,0-4.94,4.94,5.724,5.724,0,0,0,.111,1.143A14.09,14.09,0,0,1,1.659.922,4.771,4.771,0,0,0,1,3.392,4.95,4.95,0,0,0,3.207,7.52,5.123,5.123,0,0,1,.958,6.894v.074A4.907,4.907,0,0,0,4.94,11.8a4.958,4.958,0,0,1-1.29.184,7.181,7.181,0,0,1-.922-.074,4.964,4.964,0,0,0,4.608,3.428,9.942,9.942,0,0,1-6.156,2.1c-.406,0-.774-.037-1.18-.074a14,14,0,0,0,7.594,2.212A13.972,13.972,0,0,0,21.676,5.493V4.866A10.653,10.653,0,0,0,24.11,2.322Z" transform="translate(0 0)" fill="#333"/>
</svg>
