<svg xmlns="http://www.w3.org/2000/svg" width="170.971" height="92.439" viewBox="0 0 170.971 92.439">
  <g id="Grupo_6" data-name="Grupo 6" transform="translate(443.295 -455.569)">
    <path id="Trazado_1" data-name="Trazado 1" d="M-223.856,479.549l-5.6,17.9h-59.418l5.6-17.9Z" transform="translate(-48.468 -7.527)" fill="#6a2c91"/>
    <g id="Grupo_1" data-name="Grupo 1" transform="translate(-422.045 544.101)">
      <path id="Trazado_2" data-name="Trazado 2" d="M-406.945,584.627l-1.244,3.879h-.4l-1.044-2.353-1.049,2.353h-.4l-1.239-3.868h.809l.72,2.22,1-2.259h.318l1,2.259q.178-.546.36-1.116t.36-1.116Z" transform="translate(412.324 -584.599)" fill="#fff"/>
      <path id="Trazado_3" data-name="Trazado 3" d="M-401.263,588.506a2.012,2.012,0,0,1-.731-.137,2.012,2.012,0,0,1-.639-.391,1.9,1.9,0,0,1-.452-.615,1.857,1.857,0,0,1-.171-.8,1.878,1.878,0,0,1,.151-.738,2.006,2.006,0,0,1,.416-.626,2.027,2.027,0,0,1,.63-.433,1.957,1.957,0,0,1,.8-.161,1.977,1.977,0,0,1,.745.145,2.014,2.014,0,0,1,.636.4,2,2,0,0,1,.444.621,1.856,1.856,0,0,1,.167.788,1.87,1.87,0,0,1-.148.731,1.989,1.989,0,0,1-.413.624,2.006,2.006,0,0,1-.631.432A1.968,1.968,0,0,1-401.263,588.506Zm0-3.146a1.2,1.2,0,0,0-.471.093,1.246,1.246,0,0,0-.388.257,1.215,1.215,0,0,0-.263.383,1.161,1.161,0,0,0-.095.465,1.12,1.12,0,0,0,.1.462,1.24,1.24,0,0,0,.263.377,1.222,1.222,0,0,0,.385.255,1.191,1.191,0,0,0,.471.093,1.191,1.191,0,0,0,.471-.093,1.226,1.226,0,0,0,.386-.255,1.208,1.208,0,0,0,.259-.377,1.14,1.14,0,0,0,.095-.462,1.129,1.129,0,0,0-.1-.465,1.283,1.283,0,0,0-.262-.383,1.221,1.221,0,0,0-.386-.257A1.19,1.19,0,0,0-401.263,585.36Z" transform="translate(409.478 -584.599)" fill="#fff"/>
      <path id="Trazado_4" data-name="Trazado 4" d="M-392.029,588.485h-.949l-1.06-1.461h-.469v1.461h-.771v-3.829h1.579a1.158,1.158,0,0,1,.463.093,1.233,1.233,0,0,1,.382.255,1.229,1.229,0,0,1,.262.375,1.089,1.089,0,0,1,.1.46,1.152,1.152,0,0,1-.19.648,1.131,1.131,0,0,1-.5.424Zm-1.813-2.216a.626.626,0,0,0,.435-.128.4.4,0,0,0,.139-.3.385.385,0,0,0-.139-.3.644.644,0,0,0-.435-.123h-.664v.853Z" transform="translate(406.974 -584.617)" fill="#fff"/>
      <path id="Trazado_5" data-name="Trazado 5" d="M-386.266,588.485h-2.349v-3.829h.775v3.069h1.573Z" transform="translate(404.883 -584.617)" fill="#fff"/>
      <path id="Trazado_6" data-name="Trazado 6" d="M-383.134,588.485v-3.829h1.357a2.1,2.1,0,0,1,.784.139,1.7,1.7,0,0,1,.594.394,1.766,1.766,0,0,1,.379.607,2.179,2.179,0,0,1,.134.779,2.081,2.081,0,0,1-.134.753,1.805,1.805,0,0,1-.379.6,1.772,1.772,0,0,1-.594.405,2,2,0,0,1-.784.148Zm.771-.76h.586a1.11,1.11,0,0,0,.443-.088,1.074,1.074,0,0,0,.355-.243,1.105,1.105,0,0,0,.234-.366,1.2,1.2,0,0,0,.084-.452,1.2,1.2,0,0,0-.084-.451,1.113,1.113,0,0,0-.234-.366,1.126,1.126,0,0,0-.355-.246,1.078,1.078,0,0,0-.443-.09h-.586Z" transform="translate(403.162 -584.617)" fill="#fff"/>
      <path id="Trazado_7" data-name="Trazado 7" d="M-371.768,584.627l-1.245,3.879h-.4l-1.044-2.353-1.049,2.353h-.4l-1.238-3.868h.809l.72,2.22,1-2.259h.318l1.005,2.259q.178-.546.36-1.116t.36-1.116Z" transform="translate(401.283 -584.599)" fill="#fff"/>
      <path id="Trazado_8" data-name="Trazado 8" d="M-367.4,588.485v-3.829h.771v3.829Z" transform="translate(398.225 -584.617)" fill="#fff"/>
      <path id="Trazado_9" data-name="Trazado 9" d="M-363.85,588.485v-3.829h1.357a2.1,2.1,0,0,1,.784.139,1.7,1.7,0,0,1,.594.394,1.767,1.767,0,0,1,.379.607,2.179,2.179,0,0,1,.134.779,2.081,2.081,0,0,1-.134.753,1.806,1.806,0,0,1-.379.6,1.771,1.771,0,0,1-.594.405,2,2,0,0,1-.784.148Zm.771-.76h.586a1.11,1.11,0,0,0,.443-.088,1.073,1.073,0,0,0,.355-.243,1.106,1.106,0,0,0,.234-.366,1.2,1.2,0,0,0,.084-.452,1.2,1.2,0,0,0-.084-.451,1.114,1.114,0,0,0-.234-.366,1.125,1.125,0,0,0-.355-.246,1.078,1.078,0,0,0-.443-.09h-.586Z" transform="translate(397.11 -584.617)" fill="#fff"/>
      <path id="Trazado_10" data-name="Trazado 10" d="M-356.129,585.416v.771h1.267v.766h-1.267v.771h1.736v.76H-356.9v-3.829h2.511v.76Z" transform="translate(394.93 -584.617)" fill="#fff"/>
      <path id="Trazado_11" data-name="Trazado 11" d="M-348.34,588.485v-3.829h.771v3.829Z" transform="translate(392.242 -584.617)" fill="#fff"/>
      <path id="Trazado_12" data-name="Trazado 12" d="M-344.786,584.6h.341l2.109,2.3v-2.259h.771v3.868h-.346l-2.1-2.292v2.254h-.771Z" transform="translate(391.126 -584.599)" fill="#fff"/>
      <path id="Trazado_13" data-name="Trazado 13" d="M-337.539,588.485v-3.829h1.356a2.1,2.1,0,0,1,.784.139,1.694,1.694,0,0,1,.595.394,1.765,1.765,0,0,1,.379.607,2.178,2.178,0,0,1,.134.779,2.08,2.08,0,0,1-.134.753,1.8,1.8,0,0,1-.379.6,1.767,1.767,0,0,1-.595.405,2,2,0,0,1-.784.148Zm.771-.76h.585a1.11,1.11,0,0,0,.444-.088,1.081,1.081,0,0,0,.355-.243,1.106,1.106,0,0,0,.234-.366,1.2,1.2,0,0,0,.084-.452,1.2,1.2,0,0,0-.084-.451,1.115,1.115,0,0,0-.234-.366,1.135,1.135,0,0,0-.355-.246,1.079,1.079,0,0,0-.444-.09h-.585Z" transform="translate(388.852 -584.617)" fill="#fff"/>
      <path id="Trazado_14" data-name="Trazado 14" d="M-329.817,585.416v.771h1.267v.766h-1.267v.771h1.735v.76h-2.511v-3.829h2.511v.76Z" transform="translate(386.672 -584.617)" fill="#fff"/>
      <path id="Trazado_15" data-name="Trazado 15" d="M-323.978,588.485h-.775v-3.829h1.579a1.16,1.16,0,0,1,.463.093,1.241,1.241,0,0,1,.382.255,1.242,1.242,0,0,1,.262.375,1.088,1.088,0,0,1,.1.46,1.156,1.156,0,0,1-.095.465,1.161,1.161,0,0,1-.259.378,1.258,1.258,0,0,1-.385.252,1.191,1.191,0,0,1-.466.093h-.8Zm0-2.216h.659a.627.627,0,0,0,.436-.128.4.4,0,0,0,.139-.3.386.386,0,0,0-.139-.3.645.645,0,0,0-.436-.123h-.659Z" transform="translate(384.839 -584.617)" fill="#fff"/>
      <path id="Trazado_16" data-name="Trazado 16" d="M-317.894,585.416v.771h1.267v.766h-1.267v.771h1.735v.76h-2.511v-3.829h2.511v.76Z" transform="translate(382.929 -584.617)" fill="#fff"/>
      <path id="Trazado_17" data-name="Trazado 17" d="M-312.822,584.6h.341l2.109,2.3v-2.259h.771v3.868h-.346l-2.1-2.292v2.254h-.77Z" transform="translate(381.094 -584.599)" fill="#fff"/>
      <path id="Trazado_18" data-name="Trazado 18" d="M-305.575,588.485v-3.829h1.356a2.1,2.1,0,0,1,.784.139,1.686,1.686,0,0,1,.594.394,1.767,1.767,0,0,1,.38.607,2.192,2.192,0,0,1,.134.779,2.094,2.094,0,0,1-.134.753,1.806,1.806,0,0,1-.38.6,1.758,1.758,0,0,1-.594.405,2,2,0,0,1-.784.148Zm.77-.76h.586a1.11,1.11,0,0,0,.444-.088,1.072,1.072,0,0,0,.354-.243,1.1,1.1,0,0,0,.235-.366,1.215,1.215,0,0,0,.084-.452,1.216,1.216,0,0,0-.084-.451,1.1,1.1,0,0,0-.235-.366,1.124,1.124,0,0,0-.354-.246,1.079,1.079,0,0,0-.444-.09h-.586Z" transform="translate(378.819 -584.617)" fill="#fff"/>
      <path id="Trazado_19" data-name="Trazado 19" d="M-297.854,585.416v.771h1.267v.766h-1.267v.771h1.736v.76h-2.511v-3.829h2.511v.76Z" transform="translate(376.639 -584.617)" fill="#fff"/>
      <path id="Trazado_20" data-name="Trazado 20" d="M-292.782,584.6h.341l2.109,2.3v-2.259h.771v3.868h-.346l-2.1-2.292v2.254h-.771Z" transform="translate(374.804 -584.599)" fill="#fff"/>
      <path id="Trazado_21" data-name="Trazado 21" d="M-283.052,585.416h-1.072v3.069h-.775v-3.069h-1.083v-.76h2.93Z" transform="translate(372.67 -584.617)" fill="#fff"/>
      <path id="Trazado_22" data-name="Trazado 22" d="M-273.767,587.827a2.571,2.571,0,0,1-.712.5,1.9,1.9,0,0,1-.807.178,1.969,1.969,0,0,1-.821-.167,1.991,1.991,0,0,1-.627-.44,1.943,1.943,0,0,1-.4-.624,1.93,1.93,0,0,1-.14-.717,1.876,1.876,0,0,1,.165-.788,1.954,1.954,0,0,1,.44-.621,2.023,2.023,0,0,1,.636-.4,1.979,1.979,0,0,1,.745-.145,1.978,1.978,0,0,1,.773.161,2.145,2.145,0,0,1,.684.463l-.541.536a1.454,1.454,0,0,0-.433-.3,1.2,1.2,0,0,0-.482-.1,1.17,1.17,0,0,0-.471.1,1.266,1.266,0,0,0-.385.257,1.181,1.181,0,0,0-.26.38,1.162,1.162,0,0,0-.095.465,1.141,1.141,0,0,0,.095.462,1.184,1.184,0,0,0,.26.377,1.221,1.221,0,0,0,.385.255,1.191,1.191,0,0,0,.471.093,1.151,1.151,0,0,0,.517-.117,1.772,1.772,0,0,0,.454-.331Z" transform="translate(369.936 -584.599)" fill="#fff"/>
      <path id="Trazado_23" data-name="Trazado 23" d="M-266.9,588.485h-.949l-1.06-1.461h-.469v1.461h-.771v-3.829h1.58a1.16,1.16,0,0,1,.463.093,1.249,1.249,0,0,1,.382.255,1.242,1.242,0,0,1,.262.375,1.088,1.088,0,0,1,.1.46,1.146,1.146,0,0,1-.19.648,1.134,1.134,0,0,1-.5.424Zm-1.813-2.216a.626.626,0,0,0,.435-.128.4.4,0,0,0,.139-.3.383.383,0,0,0-.139-.3.644.644,0,0,0-.435-.123h-.664v.853Z" transform="translate(367.7 -584.617)" fill="#fff"/>
      <path id="Trazado_24" data-name="Trazado 24" d="M-262.71,585.416v.771h1.267v.766h-1.267v.771h1.736v.76h-2.511v-3.829h2.511v.76Z" transform="translate(365.609 -584.617)" fill="#fff"/>
      <path id="Trazado_25" data-name="Trazado 25" d="M-256.272,584.6l1.759,3.868h-.854l-.318-.7h-1.49c-.048.11-.1.227-.159.353s-.109.241-.154.347h-.848l1.736-3.868Zm.24,2.408-.4-.887-.4.887Z" transform="translate(363.993 -584.599)" fill="#fff"/>
      <path id="Trazado_26" data-name="Trazado 26" d="M-248.933,585.416H-250v3.069h-.775v-3.069h-1.083v-.76h2.93Z" transform="translate(361.961 -584.617)" fill="#fff"/>
      <path id="Trazado_27" data-name="Trazado 27" d="M-245.551,588.485v-3.829h.77v3.829Z" transform="translate(359.98 -584.617)" fill="#fff"/>
      <path id="Trazado_28" data-name="Trazado 28" d="M-240.939,588.524l-1.757-3.868h.848l1.066,2.341q.262-.586.528-1.173t.532-1.168h.849l-1.741,3.868Z" transform="translate(359.084 -584.617)" fill="#fff"/>
      <path id="Trazado_29" data-name="Trazado 29" d="M-234.528,585.416v.771h1.267v.766h-1.267v.771h1.736v.76H-235.3v-3.829h2.511v.76Z" transform="translate(356.763 -584.617)" fill="#fff"/>
      <path id="Trazado_30" data-name="Trazado 30" d="M-228.628,588.506a1.744,1.744,0,0,1-.5-.071,1.843,1.843,0,0,1-.451-.2h.005a1.717,1.717,0,0,1-.268-.2c-.078-.073-.132-.126-.162-.159l.58-.526a.833.833,0,0,0,.126.118,1.56,1.56,0,0,0,.2.131,1.453,1.453,0,0,0,.235.107.7.7,0,0,0,.234.043.852.852,0,0,0,.189-.021.6.6,0,0,0,.174-.069.391.391,0,0,0,.128-.123.344.344,0,0,0,.05-.192.189.189,0,0,0-.031-.1.431.431,0,0,0-.106-.112,1.256,1.256,0,0,0-.209-.128q-.134-.068-.335-.146a4.185,4.185,0,0,1-.436-.188,1.532,1.532,0,0,1-.349-.238.987.987,0,0,1-.229-.312.949.949,0,0,1-.081-.4,1.09,1.09,0,0,1,.089-.441,1.036,1.036,0,0,1,.254-.355,1.186,1.186,0,0,1,.4-.235,1.459,1.459,0,0,1,.51-.085,1.437,1.437,0,0,1,.321.039,2.5,2.5,0,0,1,.332.1,2.235,2.235,0,0,1,.3.139,1.379,1.379,0,0,1,.237.161l-.48.591c-.071-.047-.143-.091-.218-.131a1.743,1.743,0,0,0-.218-.093.734.734,0,0,0-.251-.044.636.636,0,0,0-.365.09.3.3,0,0,0-.132.26.231.231,0,0,0,.047.139.485.485,0,0,0,.129.115,1.157,1.157,0,0,0,.187.1c.071.029.145.057.223.082a4.148,4.148,0,0,1,.564.255,1.6,1.6,0,0,1,.368.274.852.852,0,0,1,.2.312,1.089,1.089,0,0,1,.059.364,1.049,1.049,0,0,1-.1.454,1.125,1.125,0,0,1-.276.369,1.309,1.309,0,0,1-.419.246A1.5,1.5,0,0,1-228.628,588.506Z" transform="translate(355.099 -584.599)" fill="#fff"/>
    </g>
    <path id="Trazado_31" data-name="Trazado 31" d="M-312.851,545.7h18.659l21.882-66.154h-18.659Z" transform="translate(-40.942 -7.527)" fill="#6a2c91"/>
    <g id="Grupo_5" data-name="Grupo 5" transform="translate(-443.295 455.569)">
      <path id="Trazado_32" data-name="Trazado 32" d="M-402.638,545.918h-18.712l-21.944-66.344h18.712Z" transform="translate(443.295 -463.103)" fill="#fff"/>
      <g id="Grupo_4" data-name="Grupo 4" transform="translate(0)">
        <g id="Grupo_2" data-name="Grupo 2">
          <path id="Trazado_33" data-name="Trazado 33" d="M-237.077,497.444l5.6-17.9h-59.587l-17.817,53.867-4.277,12.535h59.418l6.107-17.9h-40.815l10.125-30.612Z" transform="translate(402.451 -463.096)" fill="#fff"/>
          <path id="Trazado_34" data-name="Trazado 34" d="M-289.27,455.569h-18.659l-3.562,11.026h18.659Z" transform="translate(401.926 -455.569)" fill="#fff"/>
          <path id="Trazado_35" data-name="Trazado 35" d="M-323.915,479.2l-21.945,66.344h18.712L-305.2,479.2Z" transform="translate(412.713 -462.987)" fill="#fff"/>
          <path id="Trazado_36" data-name="Trazado 36" d="M-369.08,512.894l-11.1-33.568H-398.9l.028.085h-.028l-12.854,38.861-12.833-38.648h-18.712l21.944,66.088h.524l-.014.043h18.712l12.6-38.1,11.089,33.525Z" transform="translate(443.295 -463.026)" fill="#fff"/>
        </g>
        <g id="Grupo_3" data-name="Grupo 3" transform="translate(83.465 79.834)">
          <path id="Trazado_37" data-name="Trazado 37" d="M-321.65,574.477h1.694l-.849-2.555Z" transform="translate(321.65 -571.923)" fill="#fff"/>
        </g>
      </g>
    </g>
  </g>
</svg>
