<?xml version="1.0" encoding="utf-8"?>
<!-- Generator: Adobe Illustrator 23.0.0, SVG Export Plug-In . SVG Version: 6.00 Build 0)  -->
<svg version="1.1" id="Capa_1" xmlns="http://www.w3.org/2000/svg" xmlns:xlink="http://www.w3.org/1999/xlink" x="0px" y="0px"
	 viewBox="0 0 143 133.6" style="enable-background:new 0 0 143 133.6;" xml:space="preserve">
<style type="text/css">
	.st0{fill:#F4EC37;}
</style>
<g id="Grupo_6" transform="translate(443.295 -455.569)">
	<path id="Trazado_1" class="st0" d="M-310.8,502.3l-4,12.8h-42.4l4-12.8H-310.8z"/>
	<g id="Grupo_1" transform="translate(-428.131 518.743)">
		<path id="Trazado_2" class="st0" d="M14.3,35l-0.8,2.8h-0.3l-0.7-1.7l-0.7,1.7h-0.4L10.5,35h0.6l0.5,1.6l0.7-1.6h0.2l0.7,1.6
			c0.1-0.3,0.2-0.5,0.3-0.8c0.1-0.3,0.2-0.5,0.3-0.8H14.3z"/>
		<path id="Trazado_3" class="st0" d="M16.4,37.8c-0.2,0-0.4,0-0.5-0.1c-0.2-0.1-0.3-0.2-0.5-0.3c-0.1-0.1-0.2-0.3-0.3-0.4
			C15,36.8,15,36.6,15,36.4s0-0.4,0.1-0.5c0.1-0.2,0.2-0.3,0.3-0.4c0.1-0.1,0.3-0.2,0.5-0.3C16,35,16.2,35,16.4,35
			c0.2,0,0.4,0,0.5,0.1c0.2,0.1,0.3,0.2,0.5,0.3c0.1,0.1,0.2,0.3,0.3,0.4c0.1,0.2,0.1,0.4,0.1,0.6s0,0.4-0.1,0.5
			c-0.1,0.2-0.2,0.3-0.3,0.4c-0.1,0.1-0.3,0.2-0.5,0.3C16.8,37.7,16.6,37.8,16.4,37.8z M16.4,35.5c-0.1,0-0.2,0-0.3,0.1
			c-0.1,0-0.2,0.1-0.3,0.2c-0.1,0.1-0.1,0.2-0.2,0.3c-0.1,0.1-0.1,0.2-0.1,0.3c0,0.1,0,0.2,0.1,0.3c0,0.1,0.1,0.2,0.2,0.3
			c0.1,0.1,0.2,0.1,0.3,0.2c0.1,0,0.2,0.1,0.3,0.1s0.2,0,0.3-0.1c0.1,0,0.2-0.1,0.3-0.2c0.1-0.1,0.1-0.2,0.2-0.3
			c0-0.1,0.1-0.2,0.1-0.3s0-0.2-0.1-0.3c0-0.1-0.1-0.2-0.2-0.3c-0.1-0.1-0.2-0.1-0.3-0.2C16.6,35.6,16.5,35.5,16.4,35.5z"/>
		<path id="Trazado_4" class="st0" d="M21.2,37.8h-0.7l-0.8-1h-0.3v1h-0.6V35h1.1c0.1,0,0.2,0,0.3,0.1c0.1,0,0.2,0.1,0.3,0.2
			c0.1,0.1,0.1,0.2,0.2,0.3c0,0.1,0.1,0.2,0.1,0.3c0,0.2,0,0.3-0.1,0.5c-0.1,0.1-0.2,0.2-0.4,0.3L21.2,37.8z M19.9,36.2
			c0.1,0,0.2,0,0.3-0.1c0-0.1,0.1-0.1,0.1-0.2c0-0.1,0-0.2-0.1-0.2c-0.1-0.1-0.2-0.1-0.3-0.1h-0.5v0.6
			C19.4,36.2,19.9,36.2,19.9,36.2z"/>
		<path id="Trazado_5" class="st0" d="M23.8,37.8h-1.7V35h0.6v2.2h1.1C23.8,37.2,23.8,37.8,23.8,37.8z"/>
		<path id="Trazado_6" class="st0" d="M24.8,37.8V35h1c0.2,0,0.4,0,0.6,0.1c0.2,0.1,0.3,0.2,0.4,0.3c0.1,0.1,0.2,0.3,0.3,0.4
			c0.1,0.2,0.1,0.4,0.1,0.6s0,0.4-0.1,0.5c-0.1,0.2-0.2,0.3-0.3,0.4c-0.1,0.1-0.3,0.2-0.4,0.3c-0.2,0.1-0.4,0.1-0.6,0.1h-1V37.8z
			 M25.3,37.2h0.4c0.1,0,0.2,0,0.3-0.1c0.1,0,0.2-0.1,0.3-0.2c0.1-0.1,0.1-0.2,0.2-0.3c0-0.1,0.1-0.2,0.1-0.3s0-0.2-0.1-0.3
			c0-0.1-0.1-0.2-0.2-0.3c-0.1-0.1-0.2-0.1-0.3-0.2c-0.1,0-0.2-0.1-0.3-0.1h-0.4V37.2z"/>
		<path id="Trazado_7" class="st0" d="M31.6,35l-0.9,2.8h-0.3l-0.7-1.7L29,37.8h-0.3l-1-2.8h0.6l0.5,1.6l0.7-1.6h0.2l0.7,1.6
			c0.1-0.3,0.2-0.5,0.3-0.8c0.1-0.3,0.2-0.5,0.3-0.8H31.6z"/>
		<path id="Trazado_8" class="st0" d="M32.5,37.8V35H33v2.7L32.5,37.8L32.5,37.8z"/>
		<path id="Trazado_9" class="st0" d="M34.2,37.8V35h1c0.2,0,0.4,0,0.6,0.1c0.2,0.1,0.3,0.2,0.4,0.3c0.1,0.1,0.2,0.3,0.3,0.4
			c0.1,0.2,0.1,0.4,0.1,0.6s0,0.4-0.1,0.5c-0.1,0.2-0.2,0.3-0.3,0.4c-0.1,0.1-0.3,0.2-0.4,0.3c-0.2,0.1-0.4,0.1-0.6,0.1h-1V37.8z
			 M34.8,37.2h0.4c0.1,0,0.2,0,0.3-0.1c0.1,0,0.2-0.1,0.3-0.2c0.1-0.1,0.1-0.2,0.2-0.3c0-0.1,0.1-0.2,0.1-0.3s0-0.2-0.1-0.3
			c0-0.1-0.1-0.2-0.2-0.3c-0.1-0.1-0.2-0.1-0.3-0.2c-0.1,0-0.2-0.1-0.3-0.1h-0.4V37.2z"/>
		<path id="Trazado_10" class="st0" d="M38.2,35.6v0.5h0.9v0.5h-0.9v0.5h1.2v0.5h-1.8V35h1.8v0.5L38.2,35.6L38.2,35.6z"/>
		<path id="Trazado_11" class="st0" d="M41.8,37.8V35h0.5v2.7L41.8,37.8L41.8,37.8z"/>
		<path id="Trazado_12" class="st0" d="M43.6,35h0.2l1.5,1.6V35h0.5v2.8h-0.2l-1.5-1.6v1.6h-0.5V35z"/>
		<path id="Trazado_13" class="st0" d="M47.1,37.8V35h1c0.2,0,0.4,0,0.6,0.1c0.2,0.1,0.3,0.2,0.4,0.3c0.1,0.1,0.2,0.3,0.3,0.4
			c0.1,0.2,0.1,0.4,0.1,0.6s0,0.4-0.1,0.5c-0.1,0.2-0.2,0.3-0.3,0.4c-0.1,0.1-0.3,0.2-0.4,0.3c-0.2,0.1-0.4,0.1-0.6,0.1h-1V37.8z
			 M47.7,37.2h0.4c0.1,0,0.2,0,0.3-0.1c0.1,0,0.2-0.1,0.3-0.2c0.1-0.1,0.1-0.2,0.2-0.3c0-0.1,0.1-0.2,0.1-0.3s0-0.2-0.1-0.3
			c0-0.1-0.1-0.2-0.2-0.3c-0.1-0.1-0.2-0.1-0.3-0.2c-0.1,0-0.2-0.1-0.3-0.1h-0.4V37.2z"/>
		<path id="Trazado_14" class="st0" d="M51.1,35.6v0.5H52v0.5h-0.9v0.5h1.2v0.5h-1.8V35h1.8v0.5L51.1,35.6L51.1,35.6z"/>
		<path id="Trazado_15" class="st0" d="M53.9,37.8h-0.6V35h1.2c0.1,0,0.2,0,0.3,0.1c0.1,0,0.2,0.1,0.3,0.2c0.1,0.1,0.1,0.2,0.2,0.3
			c0,0.1,0.1,0.2,0.1,0.3c0,0.1,0,0.2-0.1,0.3c0,0.1-0.1,0.2-0.2,0.3c-0.1,0.1-0.2,0.1-0.3,0.2c-0.1,0-0.2,0.1-0.3,0.1h-0.6V37.8z
			 M53.9,36.2h0.5c0.1,0,0.2,0,0.3-0.1c0.1-0.1,0.1-0.1,0.1-0.2c0-0.1,0-0.2-0.1-0.2c-0.1-0.1-0.2-0.1-0.3-0.1h-0.5V36.2z"/>
		<path id="Trazado_16" class="st0" d="M56.9,35.6v0.5h0.9v0.5h-0.9v0.5h1.2v0.5h-1.8V35h1.8v0.5L56.9,35.6L56.9,35.6z"/>
		<path id="Trazado_17" class="st0" d="M59.2,35h0.3l1.5,1.6V35h0.5v2.8h-0.2l-1.5-1.6v1.6h-0.5L59.2,35z"/>
		<path id="Trazado_18" class="st0" d="M62.8,37.8V35h1c0.2,0,0.4,0,0.6,0.1c0.2,0.1,0.3,0.2,0.4,0.3c0.1,0.1,0.2,0.3,0.3,0.4
			c0.1,0.2,0.1,0.4,0.1,0.6s0,0.4-0.1,0.5c-0.1,0.2-0.2,0.3-0.3,0.4c-0.1,0.1-0.3,0.2-0.4,0.3c-0.2,0.1-0.4,0.1-0.6,0.1h-1V37.8z
			 M63.3,37.2h0.4c0.1,0,0.2,0,0.3-0.1c0.1,0,0.2-0.1,0.3-0.2c0.1-0.1,0.1-0.2,0.2-0.3c0-0.1,0.1-0.2,0.1-0.3s0-0.2-0.1-0.3
			c0-0.1-0.1-0.2-0.2-0.3s-0.2-0.1-0.3-0.2c-0.1,0-0.2-0.1-0.3-0.1h-0.4V37.2z"/>
		<path id="Trazado_19" class="st0" d="M66.7,35.6v0.5h0.9v0.5h-0.9v0.5h1.2v0.5h-1.8V35h1.8v0.5L66.7,35.6L66.7,35.6z"/>
		<path id="Trazado_20" class="st0" d="M69,35h0.2l1.5,1.6V35h0.5v2.8H71l-1.5-1.6v1.6H69V35z"/>
		<path id="Trazado_21" class="st0" d="M74.4,35.6h-0.8v2.2H73v-2.2h-0.8V35h2.1L74.4,35.6z"/>
		<path id="Trazado_22" class="st0" d="M79.1,37.3c-0.1,0.1-0.3,0.3-0.5,0.4c-0.2,0.1-0.4,0.1-0.6,0.1s-0.4,0-0.6-0.1
			c-0.2-0.1-0.3-0.2-0.4-0.3s-0.2-0.3-0.3-0.4c-0.1-0.2-0.1-0.3-0.1-0.5s0-0.4,0.1-0.6s0.2-0.3,0.3-0.4c0.1-0.1,0.3-0.2,0.5-0.3
			c0.2-0.1,0.3-0.1,0.5-0.1s0.4,0,0.6,0.1c0.2,0.1,0.3,0.2,0.5,0.3l-0.4,0.4c-0.1-0.1-0.2-0.2-0.3-0.2c-0.1,0-0.2-0.1-0.3-0.1
			c-0.1,0-0.2,0-0.3,0.1c-0.1,0-0.2,0.1-0.3,0.2c-0.1,0.1-0.1,0.2-0.2,0.3c0,0.1-0.1,0.2-0.1,0.3c0,0.1,0,0.2,0.1,0.3
			c0,0.1,0.1,0.2,0.2,0.3c0.1,0.1,0.2,0.1,0.3,0.2c0.1,0,0.2,0.1,0.3,0.1c0.1,0,0.3,0,0.4-0.1c0.1-0.1,0.2-0.1,0.3-0.2L79.1,37.3z"
			/>
		<path id="Trazado_23" class="st0" d="M82.4,37.8h-0.7l-0.8-1h-0.3v1h-0.5V35h1.1c0.1,0,0.2,0,0.3,0.1c0.1,0,0.2,0.1,0.3,0.2
			c0.1,0.1,0.1,0.2,0.2,0.3c0,0.1,0.1,0.2,0.1,0.3c0,0.2,0,0.3-0.1,0.5c-0.1,0.1-0.2,0.2-0.4,0.3L82.4,37.8z M81.1,36.2
			c0.1,0,0.2,0,0.3-0.1c0.1-0.1,0.1-0.1,0.1-0.2c0-0.1,0-0.2-0.1-0.2c-0.1-0.1-0.2-0.1-0.3-0.1h-0.5v0.6
			C80.6,36.2,81.1,36.2,81.1,36.2z"/>
		<path id="Trazado_24" class="st0" d="M83.9,35.6v0.5h0.9v0.5h-0.9v0.5h1.2v0.5h-1.8V35h1.8v0.5L83.9,35.6L83.9,35.6z"/>
		<path id="Trazado_25" class="st0" d="M87.4,35l1.3,2.8h-0.6l-0.2-0.5h-1.1c0,0.1-0.1,0.2-0.1,0.3s-0.2,0.1-0.2,0.2h-0.6l1.2-2.8
			H87.4z M87.5,36.7l-0.3-0.6l-0.3,0.6H87.5z"/>
		<path id="Trazado_26" class="st0" d="M91.2,35.6h-0.8v2.2h-0.6v-2.2H89V35h2.1L91.2,35.6z"/>
		<path id="Trazado_27" class="st0" d="M92.2,37.8V35h0.6v2.7L92.2,37.8L92.2,37.8z"/>
		<path id="Trazado_28" class="st0" d="M94.8,37.8L93.6,35h0.6l0.8,1.7c0.1-0.3,0.3-0.6,0.4-0.8c0.1-0.3,0.3-0.6,0.4-0.8h0.6
			l-1.2,2.8L94.8,37.8z"/>
		<path id="Trazado_29" class="st0" d="M97.7,35.6v0.5h0.9v0.5h-0.9v0.5h1.2v0.5h-1.8V35h1.8v0.5L97.7,35.6L97.7,35.6z"/>
		<path id="Trazado_30" class="st0" d="M100.7,37.8c-0.1,0-0.2,0-0.4-0.1c-0.1,0-0.2-0.1-0.3-0.1l0,0c-0.1,0-0.1-0.1-0.2-0.1
			c-0.1-0.1-0.1-0.1-0.1-0.1l0.4-0.4l0.1,0.1l0.1,0.1c0.1,0,0.1,0.1,0.2,0.1s0.1,0,0.2,0h0.1h0.1l0.1-0.1v-0.1c0,0,0,0,0-0.1
			c0,0,0-0.1-0.1-0.1l-0.1-0.1c-0.1,0-0.1-0.1-0.2-0.1s-0.2-0.1-0.3-0.1c-0.1,0-0.2-0.1-0.2-0.2c-0.1-0.1-0.1-0.1-0.2-0.2
			c0-0.1-0.1-0.2-0.1-0.3s0-0.2,0.1-0.3c0-0.1,0.1-0.2,0.2-0.3s0.2-0.1,0.3-0.2c0.1,0,0.2-0.1,0.4-0.1c0.1,0,0.2,0,0.2,0
			c0.1,0,0.2,0,0.2,0.1c0.1,0,0.1,0.1,0.2,0.1s0.1,0.1,0.2,0.1l-0.3,0.4c-0.1,0-0.1-0.1-0.2-0.1s-0.1,0-0.2-0.1c-0.1,0-0.1,0-0.2,0
			s-0.2,0-0.3,0.1c-0.1,0-0.1,0.1-0.1,0.2v0.1l0.1,0.1c0,0,0.1,0,0.1,0.1c0.1,0,0.1,0,0.2,0.1c0.1,0.1,0.3,0.1,0.4,0.2
			c0.1,0.1,0.2,0.1,0.3,0.2c0.1,0.1,0.1,0.1,0.1,0.2c0,0.1,0,0.2,0,0.3c0,0.1,0,0.2-0.1,0.3c0,0.1-0.1,0.2-0.2,0.3
			c-0.1,0.1-0.2,0.1-0.3,0.2C101,37.8,100.9,37.8,100.7,37.8z"/>
	</g>
	<path id="Trazado_31" class="st0" d="M-368.9,549.5h13.3l15.6-47.2h-13.3L-368.9,549.5z"/>
	<g id="Grupo_5" transform="translate(-443.295 455.569)">
		<path id="Trazado_32" class="st0" d="M39.5,94.1H26.2L10.5,46.8h13.4L39.5,94.1z"/>
		<g id="Grupo_4" transform="translate(0)">
			<g id="Grupo_2">
				<path id="Trazado_33" class="st0" d="M128.5,59.5l4-12.8H90L77.3,85.2l-3.1,8.9h42.4l4.4-12.8H91.8L99,59.5L128.5,59.5z"/>
				<path id="Trazado_34" class="st0" d="M90.9,35H77.6l-2.5,7.9h13.3L90.9,35z"/>
				<path id="Trazado_35" class="st0" d="M73.9,46.6L58.2,93.9h13.4l15.7-47.3C87.3,46.6,73.9,46.6,73.9,46.6z"/>
				<path id="Trazado_36" class="st0" d="M63.5,70.6l-7.9-24H42.2v0.1l0,0L33,74.4l-9.2-27.6H10.5L26.2,94h0.3l0,0h13.4l9-27.2
					l7.9,23.9L63.5,70.6z"/>
			</g>
			<g id="Grupo_3" transform="translate(59.558 56.967)">
				<path id="Trazado_37" class="st0" d="M10.5,36.8h1.2L11.1,35L10.5,36.8z"/>
			</g>
		</g>
	</g>
</g>
</svg>
