<svg xmlns="http://www.w3.org/2000/svg" width="122" height="65.962" viewBox="0 0 122 65.962">
  <g id="Grupo_6" data-name="Grupo 6" transform="translate(443.295 -455.569)">
    <path id="Trazado_1" data-name="Trazado 1" d="M-242.478,479.549l-3.994,12.769h-42.4l3.994-12.769Z" transform="translate(-78.817 -12.239)" fill="#333"/>
    <g id="Grupo_1" data-name="Grupo 1" transform="translate(-428.131 518.743)">
      <path id="Trazado_2" data-name="Trazado 2" d="M-408.486,584.619l-.888,2.768h-.287l-.745-1.679-.749,1.679h-.286l-.884-2.76h.577l.514,1.584.713-1.612h.227l.717,1.612q.127-.39.257-.8t.257-.8Z" transform="translate(412.324 -584.599)" fill="#333"/>
      <path id="Trazado_3" data-name="Trazado 3" d="M-401.834,587.387a1.436,1.436,0,0,1-.521-.1,1.436,1.436,0,0,1-.456-.279,1.359,1.359,0,0,1-.323-.439,1.325,1.325,0,0,1-.122-.574,1.34,1.34,0,0,1,.108-.527,1.43,1.43,0,0,1,.3-.447,1.447,1.447,0,0,1,.45-.309,1.4,1.4,0,0,1,.567-.115,1.41,1.41,0,0,1,.532.1,1.437,1.437,0,0,1,.454.289,1.425,1.425,0,0,1,.317.443,1.324,1.324,0,0,1,.119.562,1.335,1.335,0,0,1-.106.521,1.419,1.419,0,0,1-.295.445,1.431,1.431,0,0,1-.45.308A1.4,1.4,0,0,1-401.834,587.387Zm0-2.245a.858.858,0,0,0-.336.066.888.888,0,0,0-.277.184.866.866,0,0,0-.187.273.828.828,0,0,0-.068.332.8.8,0,0,0,.07.33.885.885,0,0,0,.188.269.872.872,0,0,0,.275.182.85.85,0,0,0,.336.066.85.85,0,0,0,.336-.066.874.874,0,0,0,.275-.182.861.861,0,0,0,.185-.269.814.814,0,0,0,.068-.33.806.806,0,0,0-.07-.332.916.916,0,0,0-.187-.273.871.871,0,0,0-.275-.184A.848.848,0,0,0-401.834,585.142Z" transform="translate(407.696 -584.599)" fill="#333"/>
      <path id="Trazado_4" data-name="Trazado 4" d="M-392.959,587.388h-.677l-.756-1.042h-.334v1.042h-.55v-2.732h1.127a.827.827,0,0,1,.331.066.88.88,0,0,1,.273.182.876.876,0,0,1,.187.267.777.777,0,0,1,.07.328.822.822,0,0,1-.136.462.807.807,0,0,1-.354.3Zm-1.294-1.581a.447.447,0,0,0,.31-.092.286.286,0,0,0,.1-.216.275.275,0,0,0-.1-.213.46.46,0,0,0-.31-.088h-.474v.609Z" transform="translate(403.623 -584.628)" fill="#333"/>
      <path id="Trazado_5" data-name="Trazado 5" d="M-386.939,587.388h-1.676v-2.732h.553v2.19h1.123Z" transform="translate(400.223 -584.628)" fill="#333"/>
      <path id="Trazado_6" data-name="Trazado 6" d="M-383.134,587.388v-2.732h.968a1.5,1.5,0,0,1,.56.1,1.212,1.212,0,0,1,.424.281,1.259,1.259,0,0,1,.271.433,1.555,1.555,0,0,1,.1.556,1.485,1.485,0,0,1-.1.537,1.288,1.288,0,0,1-.271.431,1.264,1.264,0,0,1-.424.289,1.426,1.426,0,0,1-.56.105Zm.55-.543h.418a.792.792,0,0,0,.316-.063.767.767,0,0,0,.253-.174.788.788,0,0,0,.167-.261.856.856,0,0,0,.06-.322.857.857,0,0,0-.06-.322.794.794,0,0,0-.167-.261.8.8,0,0,0-.253-.176.769.769,0,0,0-.316-.064h-.418Z" transform="translate(397.426 -584.628)" fill="#333"/>
      <path id="Trazado_7" data-name="Trazado 7" d="M-373.308,584.619l-.888,2.768h-.286l-.745-1.679-.749,1.679h-.287l-.884-2.76h.577l.514,1.584.713-1.612h.227l.717,1.612q.127-.39.257-.8t.257-.8Z" transform="translate(394.37 -584.599)" fill="#333"/>
      <path id="Trazado_8" data-name="Trazado 8" d="M-367.4,587.388v-2.732h.55v2.732Z" transform="translate(389.397 -584.628)" fill="#333"/>
      <path id="Trazado_9" data-name="Trazado 9" d="M-363.85,587.388v-2.732h.968a1.5,1.5,0,0,1,.56.1,1.211,1.211,0,0,1,.424.281,1.26,1.26,0,0,1,.271.433,1.554,1.554,0,0,1,.1.556,1.485,1.485,0,0,1-.1.537,1.289,1.289,0,0,1-.271.431,1.263,1.263,0,0,1-.424.289,1.426,1.426,0,0,1-.56.105Zm.55-.543h.418a.792.792,0,0,0,.316-.063.766.766,0,0,0,.253-.174.788.788,0,0,0,.167-.261.858.858,0,0,0,.06-.322.859.859,0,0,0-.06-.322.794.794,0,0,0-.167-.261.8.8,0,0,0-.253-.176.769.769,0,0,0-.316-.064h-.418Z" transform="translate(387.583 -584.628)" fill="#333"/>
      <path id="Trazado_10" data-name="Trazado 10" d="M-356.351,585.2v.55h.9v.547h-.9v.55h1.239v.543H-356.9v-2.732h1.792v.542Z" transform="translate(384.038 -584.628)" fill="#333"/>
      <path id="Trazado_11" data-name="Trazado 11" d="M-348.34,587.388v-2.732h.55v2.732Z" transform="translate(379.667 -584.628)" fill="#333"/>
      <path id="Trazado_12" data-name="Trazado 12" d="M-344.786,584.6h.243l1.505,1.64v-1.612h.55v2.76h-.247l-1.5-1.636v1.608h-.55Z" transform="translate(377.853 -584.599)" fill="#333"/>
      <path id="Trazado_13" data-name="Trazado 13" d="M-337.539,587.388v-2.732h.967a1.5,1.5,0,0,1,.56.1,1.208,1.208,0,0,1,.424.281,1.259,1.259,0,0,1,.271.433,1.554,1.554,0,0,1,.1.556,1.485,1.485,0,0,1-.1.537,1.288,1.288,0,0,1-.271.431,1.26,1.26,0,0,1-.424.289,1.424,1.424,0,0,1-.56.105Zm.55-.543h.418a.792.792,0,0,0,.317-.063.773.773,0,0,0,.253-.174.789.789,0,0,0,.167-.261.857.857,0,0,0,.06-.322.858.858,0,0,0-.06-.322.8.8,0,0,0-.167-.261.81.81,0,0,0-.253-.176.77.77,0,0,0-.317-.064h-.418Z" transform="translate(374.154 -584.628)" fill="#333"/>
      <path id="Trazado_14" data-name="Trazado 14" d="M-330.039,585.2v.55h.9v.547h-.9v.55h1.238v.543h-1.792v-2.732h1.792v.542Z" transform="translate(370.609 -584.628)" fill="#333"/>
      <path id="Trazado_15" data-name="Trazado 15" d="M-324.2,587.388h-.553v-2.732h1.127a.828.828,0,0,1,.33.066.886.886,0,0,1,.273.182.886.886,0,0,1,.187.267.777.777,0,0,1,.069.328.824.824,0,0,1-.068.331.828.828,0,0,1-.185.27.9.9,0,0,1-.275.18.85.85,0,0,1-.332.066h-.574Zm0-1.581h.47a.447.447,0,0,0,.311-.092.286.286,0,0,0,.1-.216.275.275,0,0,0-.1-.213.46.46,0,0,0-.311-.088h-.47Z" transform="translate(367.628 -584.628)" fill="#333"/>
      <path id="Trazado_16" data-name="Trazado 16" d="M-318.116,585.2v.55h.9v.547h-.9v.55h1.238v.543h-1.792v-2.732h1.792v.542Z" transform="translate(364.523 -584.628)" fill="#333"/>
      <path id="Trazado_17" data-name="Trazado 17" d="M-312.822,584.6h.243l1.5,1.64v-1.612h.55v2.76h-.247l-1.5-1.636v1.608h-.549Z" transform="translate(361.539 -584.599)" fill="#333"/>
      <path id="Trazado_18" data-name="Trazado 18" d="M-305.575,587.388v-2.732h.967a1.5,1.5,0,0,1,.56.1,1.2,1.2,0,0,1,.424.281,1.26,1.26,0,0,1,.271.433,1.564,1.564,0,0,1,.1.556,1.494,1.494,0,0,1-.1.537,1.289,1.289,0,0,1-.271.431,1.254,1.254,0,0,1-.424.289,1.426,1.426,0,0,1-.56.105Zm.549-.543h.418a.792.792,0,0,0,.317-.063.765.765,0,0,0,.253-.174.782.782,0,0,0,.167-.261.867.867,0,0,0,.06-.322.868.868,0,0,0-.06-.322.789.789,0,0,0-.167-.261.8.8,0,0,0-.253-.176.77.77,0,0,0-.317-.064h-.418Z" transform="translate(357.84 -584.628)" fill="#333"/>
      <path id="Trazado_19" data-name="Trazado 19" d="M-298.076,585.2v.55h.9v.547h-.9v.55h1.239v.543h-1.792v-2.732h1.792v.542Z" transform="translate(354.295 -584.628)" fill="#333"/>
      <path id="Trazado_20" data-name="Trazado 20" d="M-292.782,584.6h.243l1.505,1.64v-1.612h.55v2.76h-.247l-1.5-1.636v1.608h-.55Z" transform="translate(351.311 -584.599)" fill="#333"/>
      <path id="Trazado_21" data-name="Trazado 21" d="M-283.891,585.2h-.765v2.19h-.553V585.2h-.773v-.542h2.091Z" transform="translate(347.84 -584.628)" fill="#333"/>
      <path id="Trazado_22" data-name="Trazado 22" d="M-274.771,586.9a1.834,1.834,0,0,1-.508.357,1.357,1.357,0,0,1-.576.127,1.4,1.4,0,0,1-.586-.119,1.42,1.42,0,0,1-.448-.314,1.386,1.386,0,0,1-.285-.445,1.378,1.378,0,0,1-.1-.512,1.338,1.338,0,0,1,.118-.562,1.394,1.394,0,0,1,.314-.443,1.443,1.443,0,0,1,.454-.289,1.412,1.412,0,0,1,.532-.1,1.413,1.413,0,0,1,.551.115,1.531,1.531,0,0,1,.488.331l-.386.382a1.038,1.038,0,0,0-.309-.211.859.859,0,0,0-.344-.074.834.834,0,0,0-.336.068.9.9,0,0,0-.275.184.843.843,0,0,0-.186.271.829.829,0,0,0-.068.332.814.814,0,0,0,.068.33.845.845,0,0,0,.186.269.871.871,0,0,0,.275.182.85.85,0,0,0,.336.066.821.821,0,0,0,.369-.084,1.264,1.264,0,0,0,.324-.236Z" transform="translate(343.394 -584.599)" fill="#333"/>
      <path id="Trazado_23" data-name="Trazado 23" d="M-267.829,587.388h-.677l-.756-1.042h-.334v1.042h-.55v-2.732h1.128a.828.828,0,0,1,.33.066.892.892,0,0,1,.273.182.886.886,0,0,1,.187.267.776.776,0,0,1,.07.328.818.818,0,0,1-.136.462.809.809,0,0,1-.354.3Zm-1.294-1.581a.447.447,0,0,0,.31-.092.284.284,0,0,0,.1-.216.274.274,0,0,0-.1-.213.46.46,0,0,0-.31-.088h-.474v.609Z" transform="translate(339.758 -584.628)" fill="#333"/>
      <path id="Trazado_24" data-name="Trazado 24" d="M-262.932,585.2v.55h.9v.547h-.9v.55h1.239v.543h-1.792v-2.732h1.792v.542Z" transform="translate(336.358 -584.628)" fill="#333"/>
      <path id="Trazado_25" data-name="Trazado 25" d="M-256.864,584.6l1.255,2.76h-.61l-.227-.5h-1.063c-.034.078-.072.162-.114.252s-.078.172-.11.248h-.605l1.239-2.76Zm.171,1.718-.286-.633-.287.633Z" transform="translate(333.73 -584.599)" fill="#333"/>
      <path id="Trazado_26" data-name="Trazado 26" d="M-249.772,585.2h-.765v2.19h-.553V585.2h-.773v-.542h2.091Z" transform="translate(330.426 -584.628)" fill="#333"/>
      <path id="Trazado_27" data-name="Trazado 27" d="M-245.551,587.388v-2.732H-245v2.732Z" transform="translate(327.204 -584.628)" fill="#333"/>
      <path id="Trazado_28" data-name="Trazado 28" d="M-241.442,587.416l-1.254-2.76h.605l.76,1.671q.187-.418.377-.837t.38-.833h.606l-1.243,2.76Z" transform="translate(325.747 -584.628)" fill="#333"/>
      <path id="Trazado_29" data-name="Trazado 29" d="M-234.75,585.2v.55h.9v.547h-.9v.55h1.239v.543H-235.3v-2.732h1.792v.542Z" transform="translate(321.974 -584.628)" fill="#333"/>
      <path id="Trazado_30" data-name="Trazado 30" d="M-229.021,587.387a1.245,1.245,0,0,1-.354-.051,1.315,1.315,0,0,1-.322-.144h0a1.227,1.227,0,0,1-.191-.144c-.055-.052-.094-.09-.116-.113l.414-.375a.593.593,0,0,0,.09.084,1.113,1.113,0,0,0,.141.094,1.042,1.042,0,0,0,.167.076.5.5,0,0,0,.167.031.607.607,0,0,0,.135-.015.426.426,0,0,0,.124-.049.28.28,0,0,0,.092-.088.246.246,0,0,0,.036-.137.135.135,0,0,0-.022-.068.306.306,0,0,0-.075-.08.9.9,0,0,0-.149-.092q-.1-.048-.239-.1a2.99,2.99,0,0,1-.311-.134,1.091,1.091,0,0,1-.249-.17.7.7,0,0,1-.163-.223.677.677,0,0,1-.058-.289.778.778,0,0,1,.064-.314.739.739,0,0,1,.181-.254.846.846,0,0,1,.283-.168,1.041,1.041,0,0,1,.364-.061,1.025,1.025,0,0,1,.229.028,1.777,1.777,0,0,1,.237.07,1.593,1.593,0,0,1,.217.1.983.983,0,0,1,.169.115l-.342.422c-.051-.033-.1-.065-.155-.094a1.242,1.242,0,0,0-.156-.066.523.523,0,0,0-.179-.031.453.453,0,0,0-.26.064.212.212,0,0,0-.094.186.165.165,0,0,0,.034.1.347.347,0,0,0,.092.082.828.828,0,0,0,.133.068c.05.021.1.041.159.059a2.956,2.956,0,0,1,.4.182,1.143,1.143,0,0,1,.263.2.608.608,0,0,1,.141.222.778.778,0,0,1,.042.259.748.748,0,0,1-.072.324.8.8,0,0,1-.2.263.935.935,0,0,1-.3.176A1.071,1.071,0,0,1-229.021,587.387Z" transform="translate(319.268 -584.599)" fill="#333"/>
    </g>
    <path id="Trazado_31" data-name="Trazado 31" d="M-312.851,526.755h13.314l15.614-47.205h-13.314Z" transform="translate(-66.578 -12.239)" fill="#333"/>
    <g id="Grupo_5" data-name="Grupo 5" transform="translate(-443.295 455.569)">
      <path id="Trazado_32" data-name="Trazado 32" d="M-414.284,526.915h-13.353l-15.659-47.341h13.353Z" transform="translate(443.295 -467.821)" fill="#333"/>
      <g id="Grupo_4" data-name="Grupo 4" transform="translate(0)">
        <g id="Grupo_2" data-name="Grupo 2">
          <path id="Trazado_33" data-name="Trazado 33" d="M-258.87,492.319l3.994-12.769H-297.4l-12.714,38.438-3.052,8.945h42.4l4.357-12.769H-295.53l7.225-21.844Z" transform="translate(376.876 -467.808)" fill="#333"/>
          <path id="Trazado_34" data-name="Trazado 34" d="M-295.635,455.569h-13.314l-2.542,7.868h13.314Z" transform="translate(376.023 -455.569)" fill="#333"/>
          <path id="Trazado_35" data-name="Trazado 35" d="M-330.2,479.2l-15.659,47.341h13.353l15.659-47.341Z" transform="translate(393.565 -467.631)" fill="#333"/>
          <path id="Trazado_36" data-name="Trazado 36" d="M-390.338,503.279l-7.923-23.953h-13.353l.02.061h-.02l-9.172,27.73-9.157-27.578h-13.353l15.659,47.159h.374l-.01.03h13.353l8.993-27.187,7.913,23.922Z" transform="translate(443.295 -467.695)" fill="#333"/>
        </g>
        <g id="Grupo_3" data-name="Grupo 3" transform="translate(59.558 56.967)">
          <path id="Trazado_37" data-name="Trazado 37" d="M-321.65,573.746h1.209l-.606-1.823Z" transform="translate(321.65 -571.923)" fill="#333"/>
        </g>
      </g>
    </g>
  </g>
</svg>
