<svg xmlns="http://www.w3.org/2000/svg" width="27.436" height="19.21" viewBox="0 0 27.436 19.21">
  <g id="Grupo_1229" data-name="Grupo 1229" transform="translate(-672.035 -133)">
    <path id="Trazado_2062" data-name="Trazado 2062" d="M696.488,133.588C694.341,133,685.753,133,685.753,133s-8.588,0-10.735.565a3.508,3.508,0,0,0-2.418,2.441,38.811,38.811,0,0,0,0,13.2,3.438,3.438,0,0,0,2.418,2.418c2.169.588,10.735.588,10.735.588s8.588,0,10.735-.565a3.437,3.437,0,0,0,2.418-2.418,36.237,36.237,0,0,0,.565-6.6,34.379,34.379,0,0,0-.565-6.621A3.438,3.438,0,0,0,696.488,133.588Zm-13.469,13.13v-8.226l7.141,4.113Z" fill="#333"/>
  </g>
</svg>
